<?xml version="1.0" encoding="iso-8859-1"?>
<!-- Uploaded to: SVG Repo, www.svgrepo.com, Generator: SVG Repo Mixer Tools -->
<svg fill="#000000" height="800px" width="800px" version="1.1" id="Layer_1" xmlns="http://www.w3.org/2000/svg" xmlns:xlink="http://www.w3.org/1999/xlink" 
	 viewBox="0 0 512 512" xml:space="preserve">
<g>
	<g>
		<path d="M399.929,357.333c-42.35,0-76.8,34.45-76.8,76.8c0,42.35,34.45,76.8,76.8,76.8c42.35,0,76.8-34.45,76.8-76.8
			C476.729,391.783,442.279,357.333,399.929,357.333z M399.929,493.867c-32.933,0-59.733-26.8-59.733-59.733
			s26.8-59.733,59.733-59.733c32.933,0,59.733,26.8,59.733,59.733S432.862,493.867,399.929,493.867z"/>
	</g>
</g>
<g>
	<g>
		<path d="M439.529,401.975c-3.633-3.008-9-2.525-12.025,1.092l-36.683,44.025L371.829,428.1c-3.333-3.333-8.733-3.333-12.067,0
			c-3.333,3.333-3.333,8.733,0,12.067l25.6,25.6c1.6,1.608,3.775,2.5,6.033,2.5c0.125,0,0.258,0,0.383-0.008
			c2.4-0.108,4.633-1.217,6.175-3.058l42.667-51.2C443.638,410.375,443.146,404.992,439.529,401.975z"/>
	</g>
</g>
<g>
	<g>
		<path d="M403.229,0H61.979C47.837,0,35.271,10.4,35.271,24.5v460.867c0,14.1,12.542,26.633,26.65,26.633h257.158
			c4.717,0,8.533-3.817,8.533-8.533s-3.817-8.533-8.533-8.533H61.921c-4.7,0-9.583-4.883-9.583-9.567V24.5
			c0-4.683,4.917-7.433,9.642-7.433h341.25c4.65,0,7.508,2.808,7.508,7.4V323.2c0,4.717,3.817,8.533,8.533,8.533
			c4.717,0,8.533-3.817,8.533-8.533V24.467C427.804,10.392,417.371,0,403.229,0z"/>
	</g>
</g>
<g>
	<g>
		<path d="M275.271,59.733h-85.333c-4.717,0-8.533,3.817-8.533,8.533c0,4.717,3.817,8.533,8.533,8.533h85.333
			c4.717,0,8.533-3.817,8.533-8.533C283.804,63.55,279.987,59.733,275.271,59.733z"/>
	</g>
</g>
<g>
	<g>
		<path d="M352.071,119.467H113.138c-4.717,0-8.533,3.817-8.533,8.533c0,4.717,3.817,8.533,8.533,8.533h238.933
			c4.717,0,8.533-3.817,8.533-8.533C360.604,123.283,356.787,119.467,352.071,119.467z"/>
	</g>
</g>
<g>
	<g>
		<path d="M352.071,179.2H113.138c-4.717,0-8.533,3.817-8.533,8.533c0,4.717,3.817,8.533,8.533,8.533h238.933
			c4.717,0,8.533-3.817,8.533-8.533C360.604,183.017,356.787,179.2,352.071,179.2z"/>
	</g>
</g>
<g>
	<g>
		<path d="M352.071,238.933H113.138c-4.717,0-8.533,3.817-8.533,8.533c0,4.717,3.817,8.533,8.533,8.533h238.933
			c4.717,0,8.533-3.817,8.533-8.533C360.604,242.75,356.787,238.933,352.071,238.933z"/>
	</g>
</g>
<g>
	<g>
		<path d="M352.071,298.667H113.138c-4.717,0-9.6,2.75-9.6,7.467v128c0,4.717,4.883,9.6,9.6,9.6h187.733
			c4.717,0,8.533-3.817,8.533-8.533s-3.817-8.533-8.533-8.533H120.604V315.733h221.867V348.8c0,4.717,3.817,8.533,8.533,8.533
			c4.717,0,8.533-3.817,8.533-8.533v-42.667C359.538,301.417,356.787,298.667,352.071,298.667z"/>
	</g>
</g>
</svg>